<svg viewBox="0 0 760 400" width="760" height="400" xmlns="http://www.w3.org/2000/svg" font-family="Georgia, serif">
  <!-- Illustration of the self-contained trace viewer (render_trace output). -->
  <rect width="760" height="400" rx="8" fill="#17141f"/>
  <rect x="0" y="0" width="760" height="52" rx="8" fill="#1f1b2a"/>
  <text x="24" y="33" fill="#cbb47a" font-size="19">Sanctum — trace of Invocation inv-7</text>
  <text x="540" y="33" fill="#7d768a" font-size="12" font-family="sans-serif">3 supersteps · 412.6 ms · 21 omens</text>

  <!-- Graph panel -->
  <text x="24" y="82" fill="#cbb47a" font-size="15">Graph</text>
  <rect x="24" y="94" width="330" height="282" rx="4" fill="#1f1b2a" stroke="#322c42"/>
  <rect x="129" y="112" width="120" height="30" rx="14" fill="#241f31" stroke="#5d5476"/>
  <text x="189" y="131" fill="#d9d2c4" font-size="12" text-anchor="middle" font-family="sans-serif">START</text>
  <line x1="189" y1="142" x2="189" y2="176" stroke="#5d5476"/>
  <rect x="129" y="176" width="120" height="32" rx="6" fill="#2b2440" stroke="#cbb47a"/>
  <text x="189" y="196" fill="#d9d2c4" font-size="12" text-anchor="middle" font-family="sans-serif">oracle</text>
  <line x1="189" y1="208" x2="189" y2="244" stroke="#5d5476" stroke-dasharray="5,4"/>
  <rect x="129" y="244" width="120" height="32" rx="6" fill="#2b2440" stroke="#cbb47a"/>
  <text x="189" y="264" fill="#d9d2c4" font-size="12" text-anchor="middle" font-family="sans-serif">spells</text>
  <path d="M 249 260 Q 305 228 249 196" fill="none" stroke="#5d5476" stroke-dasharray="5,4"/>
  <line x1="189" y1="276" x2="189" y2="312" stroke="#5d5476" stroke-dasharray="5,4"/>
  <rect x="129" y="312" width="120" height="30" rx="14" fill="#241f31" stroke="#5d5476"/>
  <text x="189" y="331" fill="#d9d2c4" font-size="12" text-anchor="middle" font-family="sans-serif">END</text>

  <!-- Timeline panel -->
  <text x="386" y="82" fill="#cbb47a" font-size="15">Timeline</text>
  <rect x="386" y="94" width="350" height="176" rx="4" fill="#1f1b2a" stroke="#322c42"/>
  <text x="402" y="118" fill="#d9d2c4" font-size="12" font-family="sans-serif">Superstep 1</text>
  <text x="402" y="138" fill="#b8b1a4" font-size="11" font-family="sans-serif">oracle</text>
  <rect x="470" y="128" width="238" height="12" fill="#4b4162"/>
  <rect x="470" y="128" width="3" height="12" fill="#cbb47a"/>
  <text x="402" y="166" fill="#d9d2c4" font-size="12" font-family="sans-serif">Superstep 2</text>
  <text x="402" y="186" fill="#b8b1a4" font-size="11" font-family="sans-serif">spells</text>
  <rect x="470" y="176" width="58" height="12" fill="#4b4162"/>
  <rect x="470" y="176" width="3" height="12" fill="#cbb47a"/>
  <text x="402" y="214" fill="#d9d2c4" font-size="12" font-family="sans-serif">Superstep 3</text>
  <text x="402" y="234" fill="#b8b1a4" font-size="11" font-family="sans-serif">oracle</text>
  <rect x="470" y="224" width="196" height="12" fill="#4b4162"/>
  <rect x="470" y="224" width="3" height="12" fill="#cbb47a"/>
  <text x="402" y="258" fill="#7d768a" font-size="10" font-family="sans-serif">seals: 6f2a…, 91cd…, 04be…</text>

  <!-- Spell calls panel -->
  <text x="386" y="300" fill="#cbb47a" font-size="15">Spell calls</text>
  <rect x="386" y="312" width="350" height="64" rx="4" fill="#1f1b2a" stroke="#322c42"/>
  <text x="402" y="334" fill="#cbb47a" font-size="11" font-family="sans-serif">word_count</text>
  <text x="500" y="334" fill="#c9c2b4" font-size="11" font-family="monospace">{"text": "lux aeterna"}</text>
  <text x="688" y="334" fill="#d9d2c4" font-size="11" font-family="monospace">2</text>
  <text x="402" y="358" fill="#cbb47a" font-size="11" font-family="sans-serif">shout</text>
  <text x="500" y="358" fill="#c9c2b4" font-size="11" font-family="monospace">{"text": "fiat"}</text>
  <text x="688" y="358" fill="#d9d2c4" font-size="11" font-family="monospace">FIAT!</text>
</svg>
